<mxfile host="app.diagrams.net" modified="2021-02-23T18:37:32.953Z" agent="5.0 (Windows)" etag="5aRz9CesHW8vhT_rNLvL" version="14.4.2" type="github">
  <diagram name="Page-1" id="90a13364-a465-7bf4-72fc-28e22215d7a0">
    <mxGraphModel dx="1767" dy="709" grid="1" gridSize="10" guides="1" tooltips="1" connect="1" arrows="1" fold="1" page="1" pageScale="1.5" pageWidth="1169" pageHeight="826" background="#ffffff" math="0" shadow="0">
      <root>
        <mxCell id="0" style=";html=1;" />
        <mxCell id="1" style=";html=1;" parent="0" />
        <mxCell id="3a17f1ce550125da-15" style="edgeStyle=elbowEdgeStyle;rounded=0;html=1;startArrow=none;startFill=0;jettySize=auto;orthogonalLoop=1;fontSize=18;elbow=vertical;" parent="1" source="3a17f1ce550125da-2" target="3a17f1ce550125da-6" edge="1">
          <mxGeometry relative="1" as="geometry" />
        </mxCell>
        <mxCell id="3a17f1ce550125da-2" value="Microcontroller" style="whiteSpace=wrap;html=1;shadow=1;fontSize=18;fillColor=#f5f5f5;strokeColor=#666666;" parent="1" vertex="1">
          <mxGeometry x="787" y="454" width="170" height="280" as="geometry" />
        </mxCell>
        <mxCell id="3a17f1ce550125da-4" value="MLX90614 Infrared thermometer" style="whiteSpace=wrap;html=1;shadow=1;fontSize=18;fillColor=#f5f5f5;strokeColor=#666666;" parent="1" vertex="1">
          <mxGeometry x="1037" y="444" width="143" height="76" as="geometry" />
        </mxCell>
        <mxCell id="3a17f1ce550125da-6" value="DC Motors" style="whiteSpace=wrap;html=1;shadow=1;fontSize=18;fillColor=#f5f5f5;strokeColor=#666666;" parent="1" vertex="1">
          <mxGeometry x="1037" y="560" width="143" height="74" as="geometry" />
        </mxCell>
        <mxCell id="vDRpFDDpfhGOyYYU88ng-45" value="" style="edgeStyle=orthogonalEdgeStyle;rounded=0;orthogonalLoop=1;jettySize=auto;html=1;exitX=0.521;exitY=0.015;exitDx=0;exitDy=0;exitPerimeter=0;" edge="1" parent="1" source="3a17f1ce550125da-10" target="3a17f1ce550125da-2">
          <mxGeometry relative="1" as="geometry" />
        </mxCell>
        <mxCell id="3a17f1ce550125da-10" value="Power supply" style="whiteSpace=wrap;html=1;shadow=1;fontSize=18;fillColor=#f5f5f5;strokeColor=#666666;" parent="1" vertex="1">
          <mxGeometry x="797" y="810" width="145" height="120" as="geometry" />
        </mxCell>
        <mxCell id="vDRpFDDpfhGOyYYU88ng-10" value="" style="endArrow=classic;html=1;" edge="1" parent="1">
          <mxGeometry width="50" height="50" relative="1" as="geometry">
            <mxPoint x="1107.67" y="640" as="sourcePoint" />
            <mxPoint x="1107.67" y="680" as="targetPoint" />
          </mxGeometry>
        </mxCell>
        <mxCell id="vDRpFDDpfhGOyYYU88ng-11" value="" style="endArrow=classic;html=1;" edge="1" parent="1">
          <mxGeometry width="50" height="50" relative="1" as="geometry">
            <mxPoint x="1037" y="720" as="sourcePoint" />
            <mxPoint x="957" y="720" as="targetPoint" />
          </mxGeometry>
        </mxCell>
        <mxCell id="vDRpFDDpfhGOyYYU88ng-12" value="" style="endArrow=classic;html=1;" edge="1" parent="1">
          <mxGeometry width="50" height="50" relative="1" as="geometry">
            <mxPoint x="1037" y="720" as="sourcePoint" />
            <mxPoint x="957" y="720" as="targetPoint" />
          </mxGeometry>
        </mxCell>
        <mxCell id="vDRpFDDpfhGOyYYU88ng-13" value="" style="endArrow=classic;html=1;" edge="1" parent="1">
          <mxGeometry width="50" height="50" relative="1" as="geometry">
            <mxPoint x="1037" y="481.16999999999996" as="sourcePoint" />
            <mxPoint x="957" y="481.16999999999996" as="targetPoint" />
          </mxGeometry>
        </mxCell>
        <mxCell id="vDRpFDDpfhGOyYYU88ng-14" value="DC Motors" style="whiteSpace=wrap;html=1;shadow=1;fontSize=18;fillColor=#f5f5f5;strokeColor=#666666;" vertex="1" parent="1">
          <mxGeometry x="1037" y="560" width="143" height="74" as="geometry" />
        </mxCell>
        <mxCell id="vDRpFDDpfhGOyYYU88ng-15" value="Encoders" style="whiteSpace=wrap;html=1;shadow=1;fontSize=18;fillColor=#f5f5f5;strokeColor=#666666;" vertex="1" parent="1">
          <mxGeometry x="1037" y="680" width="143" height="74" as="geometry" />
        </mxCell>
        <mxCell id="vDRpFDDpfhGOyYYU88ng-17" value="Micro-Computer" style="whiteSpace=wrap;html=1;shadow=1;fontSize=18;fillColor=#f5f5f5;strokeColor=#666666;" vertex="1" parent="1">
          <mxGeometry x="500" y="560" width="177" height="210" as="geometry" />
        </mxCell>
        <mxCell id="vDRpFDDpfhGOyYYU88ng-21" style="edgeStyle=elbowEdgeStyle;rounded=0;html=1;startArrow=none;startFill=0;jettySize=auto;orthogonalLoop=1;fontSize=18;elbow=vertical;" edge="1" parent="1">
          <mxGeometry relative="1" as="geometry">
            <Array as="points">
              <mxPoint x="760" y="680" />
            </Array>
            <mxPoint x="680" y="680" as="sourcePoint" />
            <mxPoint x="790" y="680" as="targetPoint" />
          </mxGeometry>
        </mxCell>
        <mxCell id="vDRpFDDpfhGOyYYU88ng-24" value="" style="endArrow=classic;html=1;" edge="1" parent="1">
          <mxGeometry width="50" height="50" relative="1" as="geometry">
            <mxPoint x="787" y="650" as="sourcePoint" />
            <mxPoint x="677" y="650" as="targetPoint" />
          </mxGeometry>
        </mxCell>
        <mxCell id="vDRpFDDpfhGOyYYU88ng-28" value="" style="edgeStyle=orthogonalEdgeStyle;rounded=0;orthogonalLoop=1;jettySize=auto;html=1;" edge="1" parent="1" source="vDRpFDDpfhGOyYYU88ng-27" target="vDRpFDDpfhGOyYYU88ng-17">
          <mxGeometry relative="1" as="geometry" />
        </mxCell>
        <mxCell id="vDRpFDDpfhGOyYYU88ng-27" value="Camera" style="whiteSpace=wrap;html=1;shadow=1;fontSize=18;fillColor=#f5f5f5;strokeColor=#666666;" vertex="1" parent="1">
          <mxGeometry x="270" y="480" width="145" height="120" as="geometry" />
        </mxCell>
        <mxCell id="vDRpFDDpfhGOyYYU88ng-30" value="" style="endArrow=classic;html=1;" edge="1" parent="1">
          <mxGeometry width="50" height="50" relative="1" as="geometry">
            <mxPoint x="1107.67" y="640" as="sourcePoint" />
            <mxPoint x="1107.67" y="680" as="targetPoint" />
          </mxGeometry>
        </mxCell>
        <mxCell id="vDRpFDDpfhGOyYYU88ng-39" value="Infrared led" style="whiteSpace=wrap;html=1;shadow=1;fontSize=18;fillColor=#f5f5f5;strokeColor=#666666;" vertex="1" parent="1">
          <mxGeometry x="560" y="444" width="143" height="76" as="geometry" />
        </mxCell>
        <mxCell id="vDRpFDDpfhGOyYYU88ng-41" value="" style="endArrow=classic;html=1;" edge="1" parent="1">
          <mxGeometry width="50" height="50" relative="1" as="geometry">
            <mxPoint x="787" y="481.71" as="sourcePoint" />
            <mxPoint x="707" y="481.71" as="targetPoint" />
          </mxGeometry>
        </mxCell>
        <mxCell id="vDRpFDDpfhGOyYYU88ng-42" value="" style="endArrow=none;html=1;" edge="1" parent="1">
          <mxGeometry width="50" height="50" relative="1" as="geometry">
            <mxPoint x="942" y="870" as="sourcePoint" />
            <mxPoint x="1220" y="870" as="targetPoint" />
          </mxGeometry>
        </mxCell>
        <mxCell id="vDRpFDDpfhGOyYYU88ng-43" value="" style="endArrow=none;html=1;" edge="1" parent="1">
          <mxGeometry width="50" height="50" relative="1" as="geometry">
            <mxPoint x="1220" y="870" as="sourcePoint" />
            <mxPoint x="1220" y="600" as="targetPoint" />
          </mxGeometry>
        </mxCell>
        <mxCell id="vDRpFDDpfhGOyYYU88ng-44" value="" style="endArrow=classic;html=1;" edge="1" parent="1">
          <mxGeometry width="50" height="50" relative="1" as="geometry">
            <mxPoint x="1220" y="600" as="sourcePoint" />
            <mxPoint x="1180" y="600" as="targetPoint" />
          </mxGeometry>
        </mxCell>
        <mxCell id="vDRpFDDpfhGOyYYU88ng-46" value="" style="endArrow=none;html=1;" edge="1" parent="1">
          <mxGeometry width="50" height="50" relative="1" as="geometry">
            <mxPoint x="600" y="870" as="sourcePoint" />
            <mxPoint x="797" y="870" as="targetPoint" />
          </mxGeometry>
        </mxCell>
        <mxCell id="vDRpFDDpfhGOyYYU88ng-50" value="" style="endArrow=classic;html=1;" edge="1" parent="1">
          <mxGeometry width="50" height="50" relative="1" as="geometry">
            <mxPoint x="600" y="870" as="sourcePoint" />
            <mxPoint x="600" y="773" as="targetPoint" />
          </mxGeometry>
        </mxCell>
      </root>
    </mxGraphModel>
  </diagram>
</mxfile>
